<?xml version="1.0" encoding="UTF-8"?>
<!DOCTYPE svg PUBLIC "-//W3C//DTD SVG 1.1//EN" "http://www.w3.org/Graphics/SVG/1.1/DTD/svg11.dtd">
<!-- Creator: CorelDRAW X8 -->
<svg xmlns="http://www.w3.org/2000/svg" xml:space="preserve" width="146.403mm" height="37.6029mm" version="1.1" style="shape-rendering:geometricPrecision; text-rendering:geometricPrecision; image-rendering:optimizeQuality; fill-rule:evenodd; clip-rule:evenodd"
viewBox="0 0 13735 3528"
 xmlns:xlink="http://www.w3.org/1999/xlink">
 <defs>
  <style type="text/css">
   <![CDATA[
    .fil0 {fill:#A1A1A1}
    .fil1 {fill:#A1A1A1;fill-rule:nonzero}
   ]]>
  </style>
 </defs>
 <g id="图层_x0020_1">
  <metadata id="CorelCorpID_0Corel-Layer"/>
  <path class="fil0" d="M2436 1537c0,0 3396,-3129 10264,-458l-1689 476c0,0 -3796,-2384 -8575,-18z"/>
  <path class="fil1" d="M1885 3090l0 412 -808 0c-153,0 -271,-8 -352,-24 -284,-55 -486,-214 -606,-476 -79,-176 -119,-393 -119,-652 0,-311 61,-564 182,-760 87,-140 203,-243 350,-307 146,-65 336,-97 569,-97l784 0 0 412 -728 0c-220,0 -382,59 -485,177 -85,97 -127,274 -127,529 0,342 66,566 198,674 93,75 237,112 433,112l709 0z"/>
  <path class="fil1" d="M2098 1811l689 0c140,0 249,9 326,28 78,20 142,53 194,100 51,47 87,105 107,174 21,69 31,168 31,297l0 164 -446 0 0 -92c0,-119 -22,-201 -64,-245 -42,-43 -122,-65 -238,-65l-134 0 0 1330 -465 0 0 -1691z"/>
  <path class="fil1" d="M5118 2474l0 361 -981 0c9,111 45,190 108,236 63,47 164,70 305,70l568 0 0 361 -619 0c-135,0 -244,-12 -328,-35 -85,-24 -165,-65 -241,-123 -204,-158 -307,-394 -307,-709 0,-206 55,-384 163,-536 75,-104 164,-178 268,-222 104,-44 241,-66 411,-66l653 0 0 361 -619 0c-127,0 -216,21 -267,64 -52,43 -83,123 -95,238l981 0z"/>
  <path class="fil1" d="M6542 2835l-538 0 -78 -1c-53,0 -95,14 -126,42 -31,28 -47,66 -47,114 0,55 19,94 57,117 38,23 103,34 194,34l538 0 0 -306zm0 -361c0,-119 -24,-199 -72,-240 -48,-41 -142,-62 -282,-62l-788 0 0 -361 788 0c140,0 237,2 291,7 53,5 107,16 162,33 256,98 379,330 366,698l0 953 -981 0c-175,0 -296,-5 -364,-15 -67,-10 -126,-32 -177,-66 -138,-93 -207,-233 -207,-419 0,-115 27,-216 82,-305 55,-89 127,-149 217,-181 79,-28 211,-42 395,-42l570 0z"/>
  <path class="fil1" d="M7435 1811l0 -625 465 0 0 625 431 0 0 361 -431 0 0 614c0,144 13,234 39,272 40,55 109,83 209,83l183 0 0 361 -338 0c-201,0 -344,-48 -430,-146 -85,-97 -128,-260 -128,-488l0 -696 -295 0 0 -361 295 0z"/>
  <path class="fil1" d="M11605 2141c-280,0 -419,174 -419,521 0,142 22,249 68,323 75,124 194,186 354,186 276,0 414,-172 414,-517 0,-338 -139,-509 -417,-513zm-4 -356c313,0 543,91 693,272 137,165 205,372 205,621 0,264 -86,475 -258,633 -157,144 -373,217 -646,217 -283,0 -505,-81 -665,-243 -148,-148 -221,-361 -221,-640 0,-237 71,-435 212,-592 157,-175 384,-265 680,-268z"/>
  <path class="fil1" d="M12839 1811l0 -625 465 0 0 625 431 0 0 361 -431 0 0 614c0,144 13,234 39,272 39,55 109,83 208,83l184 0 0 361 -338 0c-201,0 -345,-48 -430,-146 -86,-97 -128,-260 -128,-488l0 -696 -295 0 0 -361 295 0z"/>
  <path class="fil1" d="M9942 2082c-30,23 -61,38 -93,45 -32,7 -83,11 -153,11l-672 0 0 -540 682 0c113,0 194,16 242,48 68,44 102,113 102,207 0,97 -36,174 -108,229zm0 952c-29,23 -59,38 -92,45 -33,7 -84,11 -154,11l-672 0 0 -540 682 0c113,0 194,16 242,48 68,44 102,113 102,207 0,97 -36,174 -108,229zm557 -904c64,-105 96,-217 96,-336 0,-23 -1,-45 -4,-67 -390,-185 -991,-411 -1347,-541l-712 0 0 2316 1281 0c192,0 337,-16 435,-50 98,-33 177,-94 238,-182 72,-102 107,-229 107,-380 0,-260 -112,-442 -336,-545 98,-40 178,-111 242,-215z"/>
 </g>
</svg>
