<?xml version="1.0" encoding="utf-8"?>
<!-- Generator: Adobe Illustrator 25.2.1, SVG Export Plug-In . SVG Version: 6.00 Build 0)  -->
<svg version="1.1" id="图层_1" xmlns="http://www.w3.org/2000/svg" xmlns:xlink="http://www.w3.org/1999/xlink" x="0px" y="0px"
	 viewBox="0 0 1920 1080" style="enable-background:new 0 0 1920 1080;" xml:space="preserve">
<style type="text/css">
	.st0{fill:none;stroke:#000000;stroke-width:2;stroke-linecap:round;stroke-miterlimit:10;}
</style>
<line class="st0" x1="949.11" y1="501.65" x2="985.44" y2="501.65"/>
<line class="st0" x1="967.28" y1="511.31" x2="967.28" y2="501.65"/>
<path class="st0" d="M942.04,521.28c6.16-6.16,14.66-9.96,24.05-9.96c18.79,0,34.02,15.23,34.02,34.02
	c0,18.79-15.23,34.02-34.02,34.02c-6.19,0-11.99-1.65-16.99-4.54"/>
<line class="st0" x1="919.89" y1="532.65" x2="954.56" y2="532.65"/>
<line class="st0" x1="924.56" y1="547.09" x2="954.56" y2="547.09"/>
<line class="st0" x1="930.33" y1="559.76" x2="953.22" y2="559.76"/>
<path d="M974.64,528l-9.32,14.48c-1.94,0.28-3.43,1.93-3.43,3.94c0,2.21,1.79,4,4,4c2.21,0,4-1.79,4-4c0-0.69-0.19-1.33-0.5-1.89
	L974.64,528z"/>
</svg>
