<?xml version="1.0" encoding="utf-8"?>
<!-- Generator: Adobe Illustrator 25.2.1, SVG Export Plug-In . SVG Version: 6.00 Build 0)  -->
<svg version="1.1" id="图层_1" xmlns="http://www.w3.org/2000/svg" xmlns:xlink="http://www.w3.org/1999/xlink" x="0px" y="0px"
	 viewBox="0 0 1920 1080" style="enable-background:new 0 0 1920 1080;" xml:space="preserve">
<style type="text/css">
	.st0{fill:none;stroke:#000000;stroke-width:1.5;stroke-linecap:round;stroke-miterlimit:10;}
	.st1{fill:none;stroke:#000000;stroke-width:2;stroke-linecap:round;stroke-miterlimit:10;}
</style>
<circle class="st0" cx="958.58" cy="540.17" r="6.33"/>
<path class="st1" d="M982.58,522.83c-9.02,0-16.33,7.31-16.33,16.33h32.67C998.92,530.14,991.6,522.83,982.58,522.83z"/>
<path class="st1" d="M977.53,562.83c0-9.02-7.31-16.33-16.33-16.33v32.67C970.22,579.17,977.53,571.85,977.53,562.83z"/>
<path class="st1" d="M937.42,561.39c9.02,0,16.33-7.31,16.33-16.33h-32.67C921.08,554.08,928.4,561.39,937.42,561.39z"/>
<path class="st1" d="M938.74,518.17c0,9.02,7.31,16.33,16.33,16.33v-32.67C946.05,501.83,938.74,509.15,938.74,518.17z"/>
</svg>
