<?xml version="1.0" encoding="utf-8"?>
<!-- Generator: Adobe Illustrator 25.2.1, SVG Export Plug-In . SVG Version: 6.00 Build 0)  -->
<svg version="1.1" id="图层_1" xmlns="http://www.w3.org/2000/svg" xmlns:xlink="http://www.w3.org/1999/xlink" x="0px" y="0px"
	 viewBox="0 0 1920 1080" style="enable-background:new 0 0 1920 1080;" xml:space="preserve">
<style type="text/css">
	.st0{fill:none;stroke:#000000;stroke-width:1.2;stroke-miterlimit:10;}
	.st1{fill:none;stroke:#000000;stroke-width:1.5;stroke-linecap:round;stroke-miterlimit:10;}
	.st2{opacity:0.5;fill:none;stroke:#000000;stroke-width:1.5;stroke-linecap:round;stroke-miterlimit:10;}
</style>
<path class="st0" d="M953.49,546.85L953.49,546.85v-39c0-6.76-3.68-12.24-10.44-12.24c-6.76,0-10.44,5.48-10.44,12.24v39l0,0
	c-5.48,3.83-10.74,10.17-10.74,17.36c0,11.7,9.48,21.18,21.18,21.18c11.7,0,21.18-9.48,21.18-21.18
	C964.23,557.02,958.97,550.68,953.49,546.85z"/>
<line class="st1" x1="916.45" y1="518.1" x2="925.03" y2="518.1"/>
<line class="st1" x1="916.45" y1="525.16" x2="925.03" y2="525.16"/>
<line class="st1" x1="916.45" y1="532.22" x2="925.03" y2="532.22"/>
<line class="st1" x1="916.45" y1="511.05" x2="925.03" y2="511.05"/>
<line class="st1" x1="916.45" y1="539.27" x2="925.03" y2="539.27"/>
<path d="M945.08,550.86v-46.04c0-1.17-0.95-2.12-2.12-2.12s-2.12,0.95-2.12,2.12v46.07c-6.44,1.06-11.37,6.64-11.37,13.39
	c0,7.5,6.08,13.59,13.59,13.59c7.5,0,13.59-6.08,13.59-13.59C956.64,557.46,951.62,551.84,945.08,550.86z"/>
<path class="st2" d="M973.56,519.04c-0.17-0.65-0.26-1.34-0.26-2.05c0-4.56,3.69-8.25,8.25-8.25c4.56,0,8.25,3.69,8.25,8.25
	c0,2.98-1.58,5.58-3.94,7.04H965.3"/>
<path class="st2" d="M984.82,532.98c-0.12,0.51-0.18,1.05-0.18,1.6c0,3.87,3.13,7,7,7c3.87,0,7-3.13,7-7c0-3.87-3.13-7-7-7h-15.17"
	/>
<path class="st2" d="M994.3,517.2c0-2.55,2.07-4.62,4.62-4.62s4.62,2.07,4.62,4.62s-2.07,4.62-4.62,4.62h-7.62"/>
</svg>
