<?xml version="1.0" encoding="utf-8"?>
<!-- Generator: Adobe Illustrator 25.2.1, SVG Export Plug-In . SVG Version: 6.00 Build 0)  -->
<svg version="1.1" id="图层_1" xmlns="http://www.w3.org/2000/svg" xmlns:xlink="http://www.w3.org/1999/xlink" x="0px" y="0px"
	 viewBox="0 0 1920 1080" style="enable-background:new 0 0 1920 1080;" xml:space="preserve">
<style type="text/css">
	.st0{fill:none;stroke:#000000;stroke-width:1.2;stroke-miterlimit:10;}
	.st1{fill:none;stroke:#000000;stroke-width:1.5;stroke-linecap:round;stroke-miterlimit:10;}
	.st2{opacity:0.5;fill:none;stroke:#000000;stroke-width:1.5;stroke-linecap:round;stroke-miterlimit:10;}
	.st3{opacity:0.5;fill:none;stroke:#000000;stroke-linecap:round;stroke-miterlimit:10;}
</style>
<path class="st0" d="M1017.6,571.13L1017.6,571.13v-39c0-6.76-3.68-12.24-10.44-12.24c-6.76,0-10.44,5.48-10.44,12.24v39l0,0
	c-5.48,3.83-10.74,10.17-10.74,17.36c0,11.7,9.48,21.18,21.18,21.18s21.18-9.48,21.18-21.18
	C1028.34,581.3,1023.08,574.96,1017.6,571.13z"/>
<line class="st1" x1="980.56" y1="542.38" x2="989.14" y2="542.38"/>
<line class="st1" x1="980.56" y1="549.44" x2="989.14" y2="549.44"/>
<line class="st1" x1="980.56" y1="556.49" x2="989.14" y2="556.49"/>
<line class="st1" x1="980.56" y1="535.33" x2="989.14" y2="535.33"/>
<line class="st1" x1="980.56" y1="563.55" x2="989.14" y2="563.55"/>
<line class="st2" x1="1024.67" y1="556.49" x2="1053.44" y2="556.49"/>
<line class="st2" x1="1024.67" y1="563.55" x2="1053.44" y2="563.55"/>
<path d="M1009.19,575.13v-46.04c0-1.17-0.95-2.12-2.12-2.12s-2.12,0.95-2.12,2.12v46.07c-6.44,1.06-11.37,6.64-11.37,13.39
	c0,7.5,6.08,13.59,13.59,13.59s13.59-6.08,13.59-13.59C1020.75,581.74,1015.73,576.12,1009.19,575.13z"/>
<path class="st3" d="M1029.2,531.22c-1.6,1.58-3.56,4-3.17,6.58c0.39,2.59,2.84,3.35,3.5,6c0.41,1.62,0.21,4.21-3.08,8.17"/>
<path class="st3" d="M1039.87,531.22c-1.6,1.58-3.56,4-3.17,6.58c0.39,2.59,2.84,3.35,3.5,6c0.41,1.62,0.21,4.21-3.08,8.17"/>
<path class="st3" d="M1050.88,531.22c-1.6,1.58-3.56,4-3.17,6.58c0.39,2.59,2.84,3.35,3.5,6c0.41,1.62,0.21,4.21-3.08,8.17"/>
</svg>
