<?xml version="1.0" encoding="utf-8"?>
<!-- Generator: Adobe Illustrator 25.2.1, SVG Export Plug-In . SVG Version: 6.00 Build 0)  -->
<svg version="1.1" id="图层_1" xmlns="http://www.w3.org/2000/svg" xmlns:xlink="http://www.w3.org/1999/xlink" x="0px" y="0px"
	 viewBox="0 0 1920 1080" style="enable-background:new 0 0 1920 1080;" xml:space="preserve">
<style type="text/css">
	.st0{fill:none;stroke:#000000;stroke-width:1.2;stroke-miterlimit:10;}
	.st1{fill:none;stroke:#000000;stroke-width:1.5;stroke-linecap:round;stroke-miterlimit:10;}
	.st2{opacity:0.5;fill:none;stroke:#000000;stroke-linecap:round;stroke-miterlimit:10;}
	.st3{opacity:0.5;fill:none;stroke:#000000;stroke-width:0.4;stroke-linecap:round;stroke-miterlimit:10;}
</style>
<path class="st0" d="M1009.82,571.13L1009.82,571.13v-39c0-6.76-3.68-12.24-10.44-12.24c-6.76,0-10.44,5.48-10.44,12.24v39l0,0
	c-5.48,3.83-10.74,10.17-10.74,17.36c0,11.7,9.48,21.18,21.18,21.18c11.7,0,21.18-9.48,21.18-21.18
	C1020.56,581.3,1015.3,574.96,1009.82,571.13z"/>
<line class="st1" x1="972.78" y1="542.38" x2="981.36" y2="542.38"/>
<line class="st1" x1="972.78" y1="549.44" x2="981.36" y2="549.44"/>
<line class="st1" x1="972.78" y1="556.49" x2="981.36" y2="556.49"/>
<line class="st1" x1="972.78" y1="535.33" x2="981.36" y2="535.33"/>
<line class="st1" x1="972.78" y1="563.55" x2="981.36" y2="563.55"/>
<path d="M1001.41,575.13v-46.04c0-1.17-0.95-2.12-2.12-2.12s-2.12,0.95-2.12,2.12v46.07c-6.44,1.06-11.37,6.64-11.37,13.39
	c0,7.5,6.08,13.59,13.59,13.59c7.5,0,13.59-6.08,13.59-13.59C1012.97,581.74,1007.95,576.12,1001.41,575.13z"/>
<polygon class="st2" points="1061.47,540.82 1049.16,540.82 1049.16,526.97 1040.06,526.97 1040.06,540.82 1027.75,540.82 
	1027.75,559.09 1036.37,559.09 1036.37,562.57 1041.6,562.57 1041.6,564.91 1043.95,564.91 1043.95,568.14 1045.27,568.14 
	1045.27,564.91 1047.62,564.91 1047.62,562.57 1052.85,562.57 1052.85,559.09 1061.47,559.09 "/>
<line class="st2" x1="1032.68" y1="530.58" x2="1039.15" y2="530.58"/>
<line class="st2" x1="1032.68" y1="536.71" x2="1039.15" y2="536.71"/>
<line class="st2" x1="1050.07" y1="536.71" x2="1056.58" y2="536.71"/>
<line class="st2" x1="1050.07" y1="530.58" x2="1056.58" y2="530.58"/>
<circle class="st3" cx="1035.25" cy="547.14" r="1.51"/>
<circle class="st3" cx="1054.45" cy="547.14" r="1.51"/>
<circle class="st3" cx="1035.25" cy="553.52" r="1.51"/>
<circle class="st3" cx="1054.45" cy="553.52" r="1.51"/>
</svg>
